<?xml version="1.0" encoding="UTF-8" standalone="no"?>
<!DOCTYPE svg PUBLIC "-//W3C//DTD SVG 1.1//EN"
 "http://www.w3.org/Graphics/SVG/1.1/DTD/svg11.dtd">
<!-- Generated by graphviz version 8.1.0 (20230707.0739)
 -->
<!-- Pages: 1 -->
<svg width="832pt" height="260pt"
 viewBox="0.00 0.00 832.30 260.00" xmlns="http://www.w3.org/2000/svg" xmlns:xlink="http://www.w3.org/1999/xlink">
<g id="graph0" class="graph" transform="scale(1 1) rotate(0) translate(4 256)">
<polygon fill="white" stroke="none" points="-4,4 -4,-256 828.3,-256 828.3,4 -4,4"/>
<!-- [root] aws_security_group.terraform_sg (expand) -->
<g id="node1" class="node">
<title>[root] aws_security_group.terraform_sg (expand)</title>
<polygon fill="none" stroke="black" points="573.93,-108 374.93,-108 374.93,-72 573.93,-72 573.93,-108"/>
<text text-anchor="middle" x="474.43" y="-84.95" font-family="Times,serif" font-size="14.00">aws_security_group.terraform_sg</text>
</g>
<!-- [root] provider[&quot;registry.terraform.io/hashicorp/aws&quot;] -->
<g id="node2" class="node">
<title>[root] provider[&quot;registry.terraform.io/hashicorp/aws&quot;]</title>
<polygon fill="none" stroke="black" points="264.43,-36 0,-18 264.43,0 528.86,-18 264.43,-36"/>
<text text-anchor="middle" x="264.43" y="-12.95" font-family="Times,serif" font-size="14.00">provider[&quot;registry.terraform.io/hashicorp/aws&quot;]</text>
</g>
<!-- [root] aws_security_group.terraform_sg (expand)&#45;&gt;[root] provider[&quot;registry.terraform.io/hashicorp/aws&quot;] -->
<g id="edge2" class="edge">
<title>[root] aws_security_group.terraform_sg (expand)&#45;&gt;[root] provider[&quot;registry.terraform.io/hashicorp/aws&quot;]</title>
<path fill="none" stroke="black" d="M421.98,-71.52C390.19,-60.92 349.74,-47.44 317.79,-36.79"/>
<polygon fill="black" stroke="black" points="319.33,-33.28 308.73,-33.43 317.11,-39.92 319.33,-33.28"/>
</g>
<!-- [root] local.ingress_rules (expand) -->
<g id="node3" class="node">
<title>[root] local.ingress_rules (expand)</title>
<ellipse fill="none" stroke="black" cx="685.43" cy="-18" rx="138.87" ry="18"/>
<text text-anchor="middle" x="685.43" y="-12.95" font-family="Times,serif" font-size="14.00">[root] local.ingress_rules (expand)</text>
</g>
<!-- [root] aws_security_group.terraform_sg (expand)&#45;&gt;[root] local.ingress_rules (expand) -->
<g id="edge1" class="edge">
<title>[root] aws_security_group.terraform_sg (expand)&#45;&gt;[root] local.ingress_rules (expand)</title>
<path fill="none" stroke="black" d="M527.13,-71.52C557.18,-61.55 594.93,-49.02 626.02,-38.71"/>
<polygon fill="black" stroke="black" points="626.91,-41.77 635.3,-35.3 624.7,-35.13 626.91,-41.77"/>
</g>
<!-- [root] provider[&quot;registry.terraform.io/hashicorp/aws&quot;] (close) -->
<g id="node4" class="node">
<title>[root] provider[&quot;registry.terraform.io/hashicorp/aws&quot;] (close)</title>
<ellipse fill="none" stroke="black" cx="474.43" cy="-162" rx="238.16" ry="18"/>
<text text-anchor="middle" x="474.43" y="-156.95" font-family="Times,serif" font-size="14.00">[root] provider[&quot;registry.terraform.io/hashicorp/aws&quot;] (close)</text>
</g>
<!-- [root] provider[&quot;registry.terraform.io/hashicorp/aws&quot;] (close)&#45;&gt;[root] aws_security_group.terraform_sg (expand) -->
<g id="edge3" class="edge">
<title>[root] provider[&quot;registry.terraform.io/hashicorp/aws&quot;] (close)&#45;&gt;[root] aws_security_group.terraform_sg (expand)</title>
<path fill="none" stroke="black" d="M474.43,-143.7C474.43,-136.24 474.43,-127.32 474.43,-118.97"/>
<polygon fill="black" stroke="black" points="477.93,-119.1 474.43,-109.1 470.93,-119.1 477.93,-119.1"/>
</g>
<!-- [root] root -->
<g id="node5" class="node">
<title>[root] root</title>
<ellipse fill="none" stroke="black" cx="474.43" cy="-234" rx="49.3" ry="18"/>
<text text-anchor="middle" x="474.43" y="-228.95" font-family="Times,serif" font-size="14.00">[root] root</text>
</g>
<!-- [root] root&#45;&gt;[root] provider[&quot;registry.terraform.io/hashicorp/aws&quot;] (close) -->
<g id="edge4" class="edge">
<title>[root] root&#45;&gt;[root] provider[&quot;registry.terraform.io/hashicorp/aws&quot;] (close)</title>
<path fill="none" stroke="black" d="M474.43,-215.7C474.43,-208.24 474.43,-199.32 474.43,-190.97"/>
<polygon fill="black" stroke="black" points="477.93,-191.1 474.43,-181.1 470.93,-191.1 477.93,-191.1"/>
</g>
</g>
</svg>
